<svg id="Layer_1" data-name="Layer 1" xmlns="http://www.w3.org/2000/svg" viewBox="0 0 800 800"><defs><style>
.cls-1{
    stroke:#fff;
    stroke-linecap:square;
    stroke-linejoin:bevel;
    stroke-width:10px; 
    stroke-dasharray: 720;
    stroke-dashoffset: 1440;
    animation: dash 2s linear infinite;
    }

@keyframes dash {
  to {
    stroke-dashoffset: 0;
  }
}}</style></defs>
<path class="cls-1" d="M278.68,303.75c41.14,0,76.11,18.68,107,35.16,2.65,1.41,5.82,3.19,9.48,5.26,26.37,14.8,75.4,42.41,124.76,42.41,1.64,0,3.29,0,4.91-.09,30.28-1.16,63.1-11.62,92.42-29.45,24.26-14.76,44.29-33.45,54.2-50.45l.07,109.81c-1.49,2-15.82,21-40.12,39.71a203.55,203.55,0,0,1-47,27.39,163.52,163.52,0,0,1-62,12.43c-25.31,0-51.1-6.11-76.65-18.23-12-5.49-24.24-11.72-37.22-18.35-39.11-19.87-79.51-40.41-116.16-43-3.49-.24-7.12-.37-10.81-.37-52.12,0-119.25,24.3-153,78.51V386.26a221.6,221.6,0,0,1,25.82-27.19c15.34-13.82,40.27-32.87,71.91-45.12a143,143,0,0,1,52.45-10.19h0"/></svg>